<?xml version="1.0" encoding="UTF-8"?>
<svg id="Capa_2" data-name="Capa 2" xmlns="http://www.w3.org/2000/svg" viewBox="0 0 156.99 343.48">
  <defs>
    <style>
      .cls-1 {
        fill: beige;
        stroke: #000;
        stroke-miterlimit: 10;
        stroke-width: 4px;
      }
    </style>
  </defs>
  <g id="Capa_1-2" data-name="Capa 1">
    <path class="cls-1" d="m72.29,3.28c-6.7,3-8.5,10.9-3.8,16.6l2.7,3.1-2.8,6.4c-1.5,3.6-7.1,12.6-12.5,20.1-14.3,20-16.1,23.3-16.7,30.3-.5,5.2-.2,6.7,2.4,12.3,1.7,3.5,5.4,9.4,8.2,13.3l5.1,7-3,2.5c-3.5,2.9-3.3,5.5.6,6.4,1.9.5,2.4,1.3,2.4,3.9,0,3-.5,3.6-4.2,5.3-3.6,1.6-4.5,2.6-5.7,6.2-1,3.3-2.1,4.6-4.2,5.4-3,1-4.3,3.5-3.4,6,.7,1.7,4.7,3.8,7.1,3.8.8,0,2.2,1.6,3,3.5.9,2.3,2.7,4.1,5.3,5.4,2.1,1.1,4.1,2.7,4.5,3.6,1.8,4.8-.2,47.9-2.9,61-3.5,16.6-10,31.6-18.9,43.2-3.1,4-5.6,8.1-5.6,9.1,0,2.4-1.7,4.4-6.1,7-12.8,7.7-21.7,26.2-16,33.3l1.9,2.4-3.9,3.6c-4.3,4-4.9,6.9-2,9.8,4,4,16.3,5.7,51.9,7.2,35.5,1.5,78.7-.5,92.4-4.2,7.8-2.1,9.2-7.8,3.1-12.6-3.5-2.9-3.6-3-2-5.4,2.5-3.4,2.1-10.5-.8-16.6-2.7-5.9-10.4-14.7-14.8-16.9-4.1-2.2-6.7-5.1-6.7-7.5,0-1.2-2.2-4.9-4.9-8.3-13-16.3-19.9-35.9-22.1-63.1-1.2-14.7-1.3-41.5-.2-43.1.4-.6,2.4-1.9,4.4-2.8,2.6-1.3,4-2.8,4.8-5.2.9-2.6,1.7-3.4,3.5-3.4,1.3,0,3.6-1,5.1-2.3,2.3-2,2.5-2.6,1.5-4.5-.6-1.1-2.3-2.7-3.8-3.4-1.8-.9-3-2.6-3.7-5.2-.9-3.2-1.9-4.2-5.6-6-3.5-1.6-4.6-2.7-4.8-4.8-.3-2.1.3-3,2.7-4.3,3.8-1.9,4.1-5.2.6-6.5-1.4-.5-2.5-1.4-2.5-2,0-.5,2.1-3.8,4.6-7.2,7.5-10.2,10.7-17.4,10.7-23.9-.1-7.7-2.2-11.8-14.8-29.4-5.9-8.3-12.3-18.3-14.2-22.3l-3.4-7.3,3.2-3.6c2.6-3,3-4.2,2.5-7.1-.6-4.2-3-7-7.3-8.8-4-1.7-6.9-1.7-10.9,0Z"/>
  </g>
</svg>