<?xml version="1.0" encoding="UTF-8"?>
<svg id="Capa_2" data-name="Capa 2" xmlns="http://www.w3.org/2000/svg" viewBox="0 0 185.41 312.74">
  <defs>
    <style>
      .cls-1 {
        stroke: #fff;
        stroke-miterlimit: 10;
        stroke-width: 4px;
      }
    </style>
  </defs>
  <g id="Capa_1-2" data-name="Capa 1">
    <path class="cls-1" d="m108.71,3.2c-.5.7-1.7,4.2-2.7,7.8-.9,3.6-2.1,7.2-2.6,8-.6,1-3.6,1.6-9.7,2.1-10.1.7-11.3,1.2-24.7,10.8-12,8.5-25.5,15.6-31.6,16.6-7.2,1.1-16.4,6.7-18.9,11.4-1.7,3.1-2.7,16.6-1.3,17.5.6.4,3.9,0,7.4-.8s6.4-1.3,6.6-1.1c.2.1-3,2-7,4.2-7.7,4.2-9.3,6.6-6.3,9.7,1.3,1.3,3.7,1.6,11.6,1.6,11,0,17.5-1.8,23-6.4,3-2.5,3.4-2.6,17-2.6,12,0,14.5-.3,18.3-2.1,2.4-1.1,5.2-2.9,6.2-4,2.8-3.1,3.4-2.3,3.4,4.5,0,5.4-.6,7.5-3.5,13.1-4.8,9.3-10.6,17.2-22.5,30.5-18.5,20.8-24.7,29.3-30.5,42.5-5.8,13.1-8,27.3-5.4,34.1.5,1.6,3.7,5.4,7,8.5,3.2,3.2,5.9,6.6,5.9,7.6s-2.9,5.6-6.5,10.1-6.5,8.9-6.5,9.7c0,3.3-3.2,7.6-7.3,9.6-2.3,1.2-6.7,4.8-9.8,7.9-10.1,10.4-14.3,23.2-10,30.5,1.1,2,2.1,4,2.1,4.4,0,.5-1.7,2-3.9,3.4-6.1,4.1-6,10.6.2,13.2,14.8,6.2,142.4,7.2,168.7,1.4,5.8-1.3,8-3.4,8-7.6,0-2.7-.7-3.8-4-6.1-4.4-3-4.8-4.6-2.2-7.5,2.7-3.1,2.2-12.9-1-19.2-4.1-7.9-9.7-14.2-17.3-19.3-5.8-4-7.1-5.4-8.1-8.9-.7-2.3-4-7.7-7.3-12-3.4-4.4-6.1-8.6-6.1-9.6,0-2.6,5.4-8.1,13.1-13.4l7.1-4.8-.6-4.7c-.5-3.2,0-7.3,1.5-13.3,1.9-7.6,2-9.4,1-15.5-1.9-11.9-1.5-17.1,2.4-27.1,3.3-8.5,3.5-9.9,3.5-20.6,0-10.1.4-12.5,3.1-20.9l3.2-9.4-4.1-10.4c-2.3-5.8-5.1-15.1-6.2-20.7-1.2-5.7-2.3-10.6-2.6-11-.2-.4-5.3-4.1-11.2-8.3-7.7-5.4-11.3-8.6-12.5-11.1-1.5-3.2-2-3.5-6.1-3.5-7.6,0-8.9-1-14-10.9-2.6-5-4.8-9.1-5-9.1s-.8.6-1.3,1.2Z"/>
  </g>
</svg>