<?xml version="1.0" encoding="UTF-8"?>
<svg id="Capa_2" data-name="Capa 2" xmlns="http://www.w3.org/2000/svg" viewBox="0 0 185 313">
  <defs>
    <style>
      .cls-1 {
        fill: beige;
        stroke: #000;
        stroke-miterlimit: 10;
        stroke-width: 4px;
      }
    </style>
  </defs>
  <g id="Capa_1-2" data-name="Capa 1">
    <path class="cls-1" d="m73.1,9.2c-6.4,11.9-6.3,11.8-13.2,11.8-5.8,0-6,.1-7.6,3.4-1.1,2.4-4.7,5.6-11.9,10.6-5.7,4-10.8,7.8-11.4,8.5-.6.8-2,5.7-3.1,11.1-1.1,5.3-3.8,14.2-5.9,19.6-2.2,5.5-4,10.6-4,11.3s1.4,5.5,3.1,10.7c2.9,8.7,3,9.9,2.5,19.4-.6,9.9-.6,10.3,3,19.5,4,10.3,4.3,13.7,2.4,27.4-1,7.1-.9,9,.8,16,1.2,4.9,1.8,10,1.5,13l-.5,5,4.6,2.8c6.3,3.9,14.2,11.2,14.9,13.7.6,2.2-1.7,6-8.9,14.8-2.4,2.9-4.4,6.2-4.4,7.2,0,3.6-1.3,5.2-8.1,9.6-15.8,10.4-24.9,30.1-18.2,39.2l2.2,3-4.4,3.7c-3.5,2.8-4.5,4.3-4.5,6.6,0,4.9,1.7,6.7,7.3,8.3,22.5,6.4,111.4,7.6,152.4,2.1,17.7-2.4,21.3-4.2,21.3-10.6,0-2.9-.6-4.3-3-6.2-1.6-1.4-3.5-2.7-4.2-2.9-1-.4-.7-1.6,1.1-4.8,1.9-3.5,2.3-5.2,1.8-9.6-1.1-10.3-9.4-22.1-21.2-30-4.7-3.2-6-4.7-7-8-.6-2.2-4-7.5-7.3-11.8-3.4-4.2-6.2-8.4-6.2-9.3s2.4-4,5.4-6.8c8.2-8,9.1-9.7,9-17.9-.1-5.2-1-9.7-3.3-16.6-6.1-18.1-12.6-28-34.1-52-10.4-11.5-19.3-24.1-23-32.2-2-4.4-2.9-16.8-1.2-16.8.5,0,1.9,1.2,3.3,2.6,4.4,4.8,8.1,5.7,22.9,5.5l13.4-.1,4.3,3c7.6,5.5,18.6,7.9,28.8,6.3,3.8-.6,5.2-1.4,6.2-3.3,1.5-3.1,1-3.7-7.7-8.6-5.7-3.1-6.1-3.5-3-2.9,1.9.3,5.2.8,7.4,1.2l3.9.6-.5-8.7c-.4-7.8-.7-8.9-3.3-11.6-3.6-3.8-13.9-9-17.6-9-3.9,0-18.8-7.9-29.4-15.6-13.2-9.5-15.7-10.7-25-11.2-4.4-.2-8.5-.8-9.1-1.3-.7-.5-2.2-4.5-3.5-8.9-1.2-4.4-2.6-8-3.1-8-.4,0-2.5,3.3-4.7,7.2Z"/>
  </g>
</svg>