<?xml version="1.0" encoding="UTF-8"?>
<svg id="Capa_2" data-name="Capa 2" xmlns="http://www.w3.org/2000/svg" viewBox="0 0 127.86 202.63">
  <defs>
    <style>
      .cls-1 {
        fill: beige;
        stroke: #000;
        stroke-miterlimit: 10;
        stroke-width: 4px;
      }
    </style>
  </defs>
  <g id="Capa_1-2" data-name="Capa 1">
    <path class="cls-1" d="m56.86,3.14c-8.3,2.3-16.5,9-20.5,16.7-2.1,4-2.3,11.3-.5,17.5,1,3.9,2.7,6.3,7.4,10.8,6.8,6.6,6.8,8.2,0,10.6-10.5,3.8-12.4,4.9-12.4,7.5,0,2,1.3,3.4,5.8,6.5,3.1,2.1,6.7,4.9,7.9,6.3,3.9,4.1,6.4,11.3,7,20.1,1.2,17.8-3.6,31.4-14,39.8-3.2,2.6-6.6,6.2-7.5,8-1.2,2.4-2.9,3.7-5.9,4.6-12.4,4.1-23.1,23.4-16.8,30.3q2,2.2,0,3.6c-4.8,3.5-5.6,4.6-5.3,7.2.5,4.3,5.3,5.9,21.3,7.3,16.1,1.3,66.5.7,81.5-1.1,16.2-1.9,21-3.9,21-8.6,0-2-3.4-5.7-6.2-6.6-.7-.3-.3-1.6,1.2-3.5,1.9-2.6,2.2-3.9,1.6-7.4-1.6-9.8-9.6-19.4-18.8-22.5-4-1.3-5-2.1-5.5-4.5-.3-1.5-1.6-3.6-3-4.4-13.1-8.6-18.1-20.5-17-40.3.3-5.3,1.1-11.4,1.8-13.5,1.6-4.9,7.5-11.6,13.8-15.6,8.6-5.6,8-7.9-3.6-12.3-4.7-1.8-8.8-3.9-9.1-4.7-.3-.9.7-2.4,2.9-4,8.5-6.5,11.9-13,11.9-22.8,0-16.8-20.8-30.2-39-25Z"/>
  </g>
</svg>