<?xml version="1.0" encoding="UTF-8"?>
<svg id="Capa_2" data-name="Capa 2" xmlns="http://www.w3.org/2000/svg" viewBox="0 0 128 201.32">
  <defs>
    <style>
      .cls-1 {
        stroke: #fff;
        stroke-miterlimit: 10;
        stroke-width: 4px;
      }
    </style>
  </defs>
  <g id="Capa_1-2" data-name="Capa 1">
    <path class="cls-1" d="m56.6,3.24c-12.9,4.1-21.6,14.3-21.6,25.4,0,8.7,1.8,12.9,8.3,19.3,3.5,3.4,5.7,6.5,5.5,7.5-.2.9-2.4,2.4-5.3,3.4-10.6,3.8-12.5,5-12.5,7.4,0,1.7,1.6,3.4,6,6.4,6.9,4.7,11.4,10.4,13.2,16.4s1.5,25-.5,31.6c-2.2,7.5-6.5,13.7-12.8,18.5-2.8,2.1-5.8,5.4-6.5,7.1-1,2.5-2.4,3.6-6,4.8-9.2,3.1-16,10.8-18.4,20.6-1.1,4.5-1,5.3.9,8.4l2.1,3.4-3.5,2.1c-2.8,1.6-3.5,2.6-3.5,5.1s.6,3.3,3.3,4.5c11.8,4.9,105.9,5.8,117.2,1.1,2.7-1.2,3.5-2.1,3.5-4,0-2.5-.3-2.9-4.9-6.5l-2.5-1.8,2.2-2.8c2.6-3.3,2.7-4.5.7-11.2-2.5-8.5-10.1-16.3-17.8-18.4-2.9-.8-4.2-1.8-5.2-4.2-.7-1.8-4.2-5.6-7.6-8.6-4.5-4-7-7.2-9.3-12-3-6.4-3.1-7.1-3.1-20.1,0-16.7,1.4-21.5,8.3-28.2,2.6-2.5,6.6-5.8,9-7.2,7.1-4.4,5.3-7.7-6.4-11.6-3.4-1.2-6.8-2.8-7.5-3.7-1.1-1.3-.9-1.9,1.6-4,9.7-8,12.4-12.4,13.2-21.3.9-9.9-5.7-20.4-16.1-25.5-6.8-3.3-17.1-4.1-24-1.9Z"/>
  </g>
</svg>