<?xml version="1.0" encoding="UTF-8"?>
<svg id="Capa_2" data-name="Capa 2" xmlns="http://www.w3.org/2000/svg" viewBox="0 0 172 355.41">
  <defs>
    <style>
      .cls-1 {
        fill: beige;
        stroke: #000;
        stroke-miterlimit: 10;
        stroke-width: 4px;
      }
    </style>
  </defs>
  <g id="Capa_1-2" data-name="Capa 1">
    <path class="cls-1" d="m81.5,2.23c-8.7,2.3-12.1,12.1-7,19.8,3.1,4.4,2.6,5.4-4.9,9.1-6.8,3.4-13.1,9.7-16.6,16.4l-2.7,5.4-1.6-3.1c-1.6-3-1.8-3-7.8-2.7-3.4.2-6.5.6-6.8.9s.8,4.4,2.3,9c1.5,4.7,3.8,12.9,5.1,18.3,2.7,11.3,6.6,21.4,13,34.2,2.5,4.9,4.5,9.3,4.5,9.8,0,.4-2.1,1.7-4.8,2.8-4.3,1.8-4.9,2.5-6.2,6.9-1.2,3.8-2.1,5.1-3.9,5.5-3.2.7-4.6,3.1-3.7,6.3.5,2,1.6,2.9,5.3,3.9,3.4,1,4.9,2,5.1,3.3.6,2.8,3.1,5.4,7.2,7.4,3.2,1.5,3.6,2.1,4.4,7.6,1.4,9-.9,50.6-3.4,62.8-4,19.3-11.2,35.6-21,47.9-2.8,3.4-5.5,7.9-6,10-.9,3-2.2,4.5-6.3,7.1-15.2,9.7-23.5,27-17.6,36.6,1.1,1.8,1.9,3.4,1.7,3.5s-2,1.4-4,2.9c-3.1,2.3-3.8,3.4-3.8,6.1,0,1.9.8,4,1.8,4.9,10.8,9.8,140.9,11.9,162,2.7,3.9-1.8,4.2-2.1,4.2-5.9,0-4-.7-4.8-7.9-9.8-.2-.2.4-1.2,1.5-2.4,2.8-3.2,2.6-12.9-.5-19.2-3-6.1-11.1-15.1-16.7-18.3-4.9-2.9-7.4-5.8-7.4-8.9,0-1.1-2.7-5.3-5.9-9.3-13.9-17.3-21.8-40.2-24.1-69.6-1.2-14.9-1.3-44.6-.2-46.2.4-.6,2.6-2.1,4.9-3.2,3-1.6,4.4-3.1,5.2-5.5,1-2.9,1.8-3.6,5.3-4.3,5.1-1.1,7.2-3.9,5.5-7.4-.7-1.3-2.3-2.7-3.7-3-1.9-.4-2.9-1.7-4.1-5.5-1.4-4.4-2-5.1-6.2-6.8-2.6-1.1-4.7-2.4-4.7-2.8,0-.5,1.6-4,3.5-7.8,6.4-12.8,10.6-24.2,14.5-39.5,2.2-8.3,4.5-17,5.2-19.3.6-2.3,1-4.5.7-4.7-1.1-1.1-7.7-1.7-8.3-.7-.3.5-1.5.7-2.5.4-1.3-.3-2.5.3-3.6,2.1l-1.8,2.6-2.3-4.9c-3-6.5-9.3-12.8-17.1-16.9-3.4-1.8-6.5-3.7-6.8-4.2s.6-2.5,2-4.6c5.5-8,1.4-18-8-19.7-1.7-.3-3.9-.3-5,0Z"/>
  </g>
</svg>