<?xml version="1.0" encoding="UTF-8"?>
<svg id="Capa_2" data-name="Capa 2" xmlns="http://www.w3.org/2000/svg" viewBox="0 0 171.88 355.32">
  <defs>
    <style>
      .cls-1 {
        stroke: #fff;
        stroke-miterlimit: 10;
        stroke-width: 4px;
      }
    </style>
  </defs>
  <g id="Capa_1-2" data-name="Capa 1">
    <path class="cls-1" d="m77.08,3.93c-6.5,4-7.7,12.3-2.7,19,1.3,1.8,2.2,3.7,1.9,4.2s-3.3,2.2-6.6,3.9c-8.2,4.1-14.3,10-17.7,17.1l-2.8,5.9-1.7-2.5c-.9-1.5-2.5-2.6-3.6-2.6s-2-.5-2-1.1c0-1.3-6.9-.3-8.4,1.2-.6.5-.2,3.3,1.2,7.1,1.2,3.5,3.6,11.9,5.3,18.7,3.4,13.4,7.4,24.2,13.8,37,2.3,4.4,4.1,8.5,4.1,9.1,0,.5-2.2,2.1-5,3.5-3.7,1.9-5,3.1-5,4.8,0,3.5-2.3,7.1-5,7.7-1.5.4-2.9,1.7-3.4,3.3-1.3,3.5,1.2,6.2,6.4,7.1,3.3.5,3.9,1.1,4.5,3.6.7,3,4.1,6.2,8.2,7.4,1.2.4,2.5,1.7,2.9,2.9,1.1,3.3.7,36.5-.6,51-2.2,25.5-10.8,49.5-23.4,65.1-3.1,3.8-5.6,7.8-5.6,8.8,0,3.2-1.8,5.5-6.2,8.1-6.1,3.5-14.4,12.7-17.3,18.9-3.2,6.8-3.4,14.4-.5,18.1,1.1,1.4,2,2.7,2,3,0,.2-1.8,1.6-4.1,3.1-3.6,2.5-4,3-3.7,6.4.4,5.3,4.2,6.8,20.3,8.4,17.2,1.6,97.6,1.6,118.4-.1,24.4-1.9,29.1-3.4,29.1-9.3,0-1.5-.8-3.5-1.7-4.3-1-.7-2.9-2.2-4.1-3.2l-2.4-1.9,2.2-3.7c5.6-9.5-2.8-25.7-18.5-36-3.7-2.4-5.2-4.1-5.9-6.7-.5-1.9-2.7-5.6-4.8-8.2-14.9-18.2-23.5-42.1-25.8-72.4-1.2-15.2-1.6-42-.6-45.1.3-1,2.6-2.9,5.1-4.1,3.4-1.6,4.6-2.9,5.3-5.4.7-2.8,1.5-3.5,5.5-4.6,5.4-1.5,7.4-4.1,5.7-7.3-.7-1.1-2.5-2.5-4.1-3.1-2.3-.8-3.1-1.9-4-5.5-1-3.9-1.8-4.7-6-6.9-2.7-1.3-4.9-2.7-4.9-3.1s2-4.7,4.4-9.7c6.7-13.9,9.4-21.4,13.6-37.9,2.1-8.4,4.6-17.3,5.4-19.9,1.4-4.5,1.4-4.7-.5-5.3-1.1-.4-2.6-.2-3.3.4-.9.8-1.8.7-3.2-.4-2.9-2.2-4.8-1.8-6.8,1.6l-1.8,3.1-3-5.3c-4-7.4-8.9-12.2-16.9-16.4-3.8-2-7.1-3.9-7.3-4.4-.3-.4.6-2.3,1.9-4.1,3.4-4.6,3.9-8,1.9-12.8-3-7.5-11.4-10.4-18.2-6.2Z"/>
  </g>
</svg>