<?xml version="1.0" encoding="UTF-8"?>
<svg id="Capa_2" data-name="Capa 2" xmlns="http://www.w3.org/2000/svg" viewBox="0 0 197 410.63">
  <defs>
    <style>
      .cls-1 {
        fill: beige;
        stroke: #000;
        stroke-miterlimit: 10;
        stroke-width: 4px;
      }
    </style>
  </defs>
  <g id="Capa_1-2" data-name="Capa 1">
    <path class="cls-1" d="m90.3,2.43c-5.6,1.4-6.5,2.8-6.1,9.5l.3,6.1h-5.4c-4.4.1-5.7.5-7.2,2.4-2.6,3.1-2.5,9.1.2,12.5,1.7,2.2,2.8,2.6,7,2.6,5.5,0,5.8.6,3.4,6.3-.8,2-1.5,4.7-1.5,6s-1.3,3.6-3,5.2c-3,2.9-3.9,5.9-2,7,2.3,1.4.6,2.4-7.7,4.4-4.9,1.2-11.7,3.5-15.1,5.2-8.5,4.1-9.9,7.2-8.3,17.4,1.8,10.6,7.4,26.5,14.6,41.1,3.6,7.3,6.5,13.6,6.5,14.1s-2.3,2-5.2,3.4c-4.7,2.2-5.3,2.9-6.7,7.4-1.3,4.1-2.2,5.3-5.3,6.7-2,1-3.9,2.7-4.3,3.8-1,3,1.9,6.7,5.7,7.5,6,1.2,6.8,1.6,6.8,3.5,0,2.8,4.6,7.7,8.5,9,2.4.8,3.7,2,4.3,3.8,1,3.9.6,47.9-.7,59.9-3,28.2-12.2,53-26.2,70.5-3.3,4-6.2,8.4-6.5,9.8-1.1,5.2-2.4,7-6.5,9.1-9.6,4.9-19.3,16.7-22.4,27.3-1.9,6.7-1.4,11.1,1.7,15.1l2.2,2.8-2.5,1.9c-6,4.6-6.9,5.7-6.9,8.6,0,6.6,2.2,8.1,14.5,10.6,31.7,6.2,132.1,7.8,163,2.5,12.7-2.1,15.5-3.9,15.5-9.8,0-3.9-2-6.6-6.7-9-2.8-1.4-2.9-2.6-.3-5.8,1.5-1.9,2-4.1,2-8.3,0-10.9-9.7-25.3-22.4-33.5-6.1-3.9-8.6-6.8-8.6-10.1,0-1.2-2.1-4.6-4.6-7.6-17.7-20.7-27.5-47.6-30.5-83.4-1.3-16.3-1.7-46.7-.7-50.6.6-1.8,1.9-3,4.3-3.8,3.9-1.3,8.5-6.2,8.5-9.1,0-1.2.9-2,2.5-2.4,1.4-.3,3.6-.7,5-1s3.2-1.6,4-2.9c2.2-3.3.3-7.3-3.9-8.4-2.7-.7-3.4-1.6-4.9-6.4-1.8-5.4-2.1-5.7-7.3-7.8-3-1.2-5.4-2.7-5.4-3.3s2-4.9,4.4-9.6c9.1-17.9,16.6-40.9,16.6-51.1,0-8.6-6.1-13-23.7-17.1-8.8-2-10.6-3-8.3-4.4,1.9-1.2,1-4.3-2-6.8-1.6-1.4-3-3.5-3-4.6s-.9-4.3-2-7.1-2-5.3-2-5.5c0-.3,2.2-.5,4.8-.5,6.7,0,8.4-1.5,8.9-8.1.6-7.7-.8-9.3-8.3-9.4h-5.9l.3-6.2c.3-5.5.1-6.3-2-7.7-2.9-1.9-9.4-2.7-13.5-1.7Z"/>
  </g>
</svg>