<?xml version="1.0" encoding="UTF-8"?>
<svg id="Capa_2" data-name="Capa 2" xmlns="http://www.w3.org/2000/svg" viewBox="0 0 197 411.94">
  <defs>
    <style>
      .cls-1 {
        stroke: #fff;
        stroke-miterlimit: 10;
        stroke-width: 4px;
      }
    </style>
  </defs>
  <g id="Capa_1-2" data-name="Capa 1">
    <path class="cls-1" d="m89.8,2.48c-6.1,1.1-7,2.5-6.6,9.9l.3,6.6-5-.3c-7.2-.5-9,1.2-9,8.2s2.4,10,9.2,10.2c2.7.1,4.9.2,5,.3.2,0-.6,2.4-1.7,5.1-1.1,2.8-2,6.1-2,7.3,0,1.4-1.2,3.2-3,4.5-3.1,2.4-3.8,5-1.8,7,1.8,1.8.2,2.7-9.7,5-16.2,3.9-22.5,8.4-22.5,16.1,0,9.3,7,30.7,16.2,49.1,4.4,8.9,6.3,13.9,5.7,14.6-.5.6-2.9,1.9-5.4,2.8-4,1.6-4.5,2.1-6,7.1-1.3,4.5-2.1,5.6-5.2,7.2-2,1-4,2.8-4.5,4.1-1.1,3.2,2.8,7,8.1,7.8,3.4.5,4.2,1.1,4.7,3.3.9,3.5,3.8,6.5,8.4,8.6,2.1,1,4.1,2.4,4.5,3.2,2.6,7,1,59.6-2.5,77.6-4.4,22.8-12.9,41.9-25.6,57.5-2.4,2.9-4.6,6.7-4.9,8.5-.9,4.3-2.1,5.7-8.5,9.9-14.3,9.3-23.9,25.9-21.1,36.5.6,2.2,1.8,4.6,2.6,5.3,2.4,2,1.8,3.4-3,6.8-3.9,2.7-4.5,3.7-4.5,6.6,0,6.3,3.2,7.7,22,9.8,15.7,1.7,107.2,1.7,132-.1,21.1-1.4,33.1-3.3,36.6-5.6,1.8-1.1,2.4-2.4,2.4-5.1,0-3.5-.6-4.4-6.9-9.2l-2.3-1.8,2.1-3.4c2.5-4.2,2.8-10.9.6-17-3-8.5-12.9-20-20.5-24-4.1-2.1-8-6.2-8-8.5s-1.5-4.4-9.3-14.4c-12.9-16.4-22.9-43.4-25.7-69.6-1.3-12.5-2.5-55.3-1.6-58.8.4-1.8,1.7-2.9,4.1-3.7,3.9-1.3,8.5-6.2,8.5-9.1,0-2.1.6-2.4,6.3-3.4,7.7-1.3,8.6-8.9,1.3-11.9-2.9-1.2-3.7-2.3-4.9-6.3-1.2-4.3-1.8-5.1-6.5-7.3-2.8-1.4-5.4-2.9-5.8-3.2-.3-.4,1.7-5.3,4.4-11,9.8-19.9,14.9-35.8,15.9-49l.6-7.8-3.7-3.5c-3.6-3.4-16-8.2-25.8-10-4.3-.8-4.2-.6-2.6-4,1-2.3.8-2.9-2-5.8-1.8-1.8-3.2-4-3.2-4.9s-.9-3.8-2-6.4-1.9-5.2-1.7-5.8,2.3-1.1,4.7-1.2c3.4,0,4.8-.6,6.6-2.8,3.1-3.5,3.2-9.3.3-13-1.9-2.5-2.7-2.7-7.3-2.4l-5.1.3.3-5.8c.4-6.8-1.1-9.2-6.2-10.2-1.7-.4-3.8-.8-4.6-.9-.8-.2-3.2,0-5.2.4Z"/>
  </g>
</svg>