<?xml version="1.0" encoding="UTF-8"?>
<svg id="Capa_2" data-name="Capa 2" xmlns="http://www.w3.org/2000/svg" viewBox="0 0 163.32 274.67">
  <defs>
    <style>
      .cls-1 {
        stroke: #fff;
        stroke-miterlimit: 10;
        stroke-width: 4px;
      }
    </style>
  </defs>
  <g id="Capa_1-2" data-name="Capa 1">
    <path class="cls-1" d="m79.82,2.54c-1.3.2-2.3.9-2.3,1.4s-1.7.9-3.8.9c-5.1,0-6.2,1.4-6.2,8.1v5.6l-5,3.1-5,3.1v-9c0-11.8-.6-12.9-7.4-12.9-5.3,0-11.2,1.4-13.1,3.2-.5.5-1.2,7.2-1.5,14.9l-.5,14-3.2,2.5c-1.8,1.4-3.3,3.2-3.3,4,0,.9,2.4,4.1,5.4,7.2,2.9,3.1,5.6,7,6,8.5.4,1.6,2.2,5.1,4.1,7.9,1.9,2.7,4,6.9,4.6,9.1,1.7,6.1.6,30.7-3.1,68.7-5.1,53.3-8.8,66.3-21.2,74.3-10.8,6.9-17.8,17.6-17.8,27,0,3.6.5,5.9,1.5,6.7,2.3,1.9,1.8,3.7-1.9,5.9-3.8,2.4-4.9,5.1-3.6,8.7,1.9,5,16.9,6.5,73.6,7.1,45.2.5,71-.4,79.7-2.8,6.7-1.8,7.4-7.9,1.4-12-1.7-1.2-3.4-2.4-3.6-2.5-.2-.2.6-1.8,1.8-3.7,1.1-1.9,2.1-4.8,2.1-6.5,0-8.7-8.9-21.9-18.8-28-8-4.9-13.4-17.8-16.1-38.7-2.1-15.9-6.1-72.7-6.1-86.7,0-16.4.7-19.6,5.5-26.4,1.9-2.7,4-6.5,4.7-8.4.6-1.9,2.9-5.3,5.1-7.5,7.3-7.3,8-10.1,3.3-12.3-3-1.3-3.6-4.6-3.6-19.1,0-6.4-.5-12.3-1-13.1-1.6-2.5-18.4-1.4-20.2,1.4-.4.6-.8,4.8-.8,9.3s-.4,8.5-1,8.8c-.5.3-1,.2-1-.3,0-.4-1.8-1.8-4-3.1l-4-2.2V3.04l-3.1-.6c-3.4-.6-13-.6-16.6.1Z"/>
  </g>
</svg>