<?xml version="1.0" encoding="UTF-8"?>
<svg id="Capa_2" data-name="Capa 2" xmlns="http://www.w3.org/2000/svg" viewBox="0 0 162.82 273.96">
  <defs>
    <style>
      .cls-1 {
        fill: beige;
        stroke: #000;
        stroke-miterlimit: 10;
        stroke-width: 4px;
      }
    </style>
  </defs>
  <g id="Capa_1-2" data-name="Capa 1">
    <path class="cls-1" d="m71.22,2.16c-3.6.5-4.4,2.1-4.4,9.8,0,4.7-.3,5.2-3.8,7.5-2,1.4-4,2.6-4.4,2.8-.5.2-.8-3.3-.8-7.8,0-11.7-.2-12-10.8-12-5.5,0-9.2.4-10,1.2-.7.7-1.2,4.1-1.3,7.7,0,3.7-.4,10.1-.8,14.5-.6,6.9-1,8-3.4,9.8-1.5,1.1-2.7,2.7-2.7,3.6,0,1,2.5,4.3,5.5,7.6,3,3.2,5.5,6.6,5.5,7.6s1.8,4.4,3.9,7.6c5.8,8.7,6.5,12.4,5.7,30.2-.8,18.8-6.1,75.5-8.2,87.6-1.9,11.4-5.3,22-8.7,27.3-1.4,2.3-5.1,5.8-8.2,7.8-9.4,6.3-16.4,16.1-18,25.3-.5,3.4-.2,5.1,1.5,8.4s1.9,4.3.9,4.7c-3.2,1-7,6.1-6.7,8.7.5,4.3,4.3,6.2,15.8,8.1,8.8,1.5,17.8,1.7,56.5,1.8,46.2,0,60.2-.8,75.9-4,8.1-1.7,10.6-3.6,10.6-8.1,0-2.5-.8-3.9-3.5-6.1l-3.6-2.8,2.1-4c1.6-3,1.9-5,1.4-8-1.5-9-8.8-19.2-18.1-25.2-8.3-5.3-12.4-14.1-15.7-33.3-2.1-12.6-6.5-64.2-7.3-85.5-.7-19.8.1-25,5.3-32.2,1.9-2.6,3.9-6.3,4.5-8.1.6-1.9,3.3-5.7,6-8.5,5.4-5.7,6.2-8.9,2.7-10.8-1.3-.6-2.5-1.4-2.8-1.6-.3-.3-.7-6.7-1-14.3-.4-9.3-1-14.3-1.9-15.4-1-1.2-3.2-1.6-9.7-1.6-4.6,0-8.6.5-8.9,1-.4.6-.9,5.3-1.2,10.5l-.6,9.4-2.8-2.4c-1.6-1.3-3.8-2.6-4.9-3-1.7-.6-2-1.5-2-7.5,0-3.8-.3-7.1-.7-7.3-1.2-.7-23.4-1.5-26.9-1Z"/>
  </g>
</svg>